HIERARCHY
ROOT Hips
{
	OFFSET 0.00000 0.00000 0.00000
	CHANNELS 6 Xposition Yposition Zposition Zrotation Yrotation Xrotation 
	JOINT LHipJoint
	{
		OFFSET 0 0 0
		CHANNELS 3 Zrotation Yrotation Xrotation
		JOINT LeftUpLeg
		{
			OFFSET 1.57358 -1.76629 0.73362
			CHANNELS 3 Zrotation Yrotation Xrotation
			JOINT LeftLeg
			{
				OFFSET 2.40600 -6.61045 0.00000
				CHANNELS 3 Zrotation Yrotation Xrotation
				JOINT LeftFoot
				{
					OFFSET 2.66168 -7.31291 0.00000
					CHANNELS 3 Zrotation Yrotation Xrotation
					JOINT LeftToeBase
					{
						OFFSET 0.20870 -0.57341 2.12506
						CHANNELS 3 Zrotation Yrotation Xrotation
						End Site
						{
							OFFSET 0.00000 -0.00000 1.10557
						}
					}
				}
			}
		}
	}
	JOINT RHipJoint
	{
		OFFSET 0 0 0
		CHANNELS 3 Zrotation Yrotation Xrotation
		JOINT RightUpLeg
		{
			OFFSET -1.49299 -1.76629 0.73362
			CHANNELS 3 Zrotation Yrotation Xrotation
			JOINT RightLeg
			{
				OFFSET -2.43663 -6.69460 0.00000
				CHANNELS 3 Zrotation Yrotation Xrotation
				JOINT RightFoot
				{
					OFFSET -2.62959 -7.22474 0.00000
					CHANNELS 3 Zrotation Yrotation Xrotation
					JOINT RightToeBase
					{
						OFFSET -0.25784 -0.70841 2.21862
						CHANNELS 3 Zrotation Yrotation Xrotation
						End Site
						{
							OFFSET -0.00000 -0.00000 1.16452
						}
					}
				}
			}
		}
	}
	JOINT LowerBack
	{
		OFFSET 0 0 0
		CHANNELS 3 Zrotation Yrotation Xrotation
		JOINT Spine
		{
			OFFSET -0.00034 2.12399 -0.25450
			CHANNELS 3 Zrotation Yrotation Xrotation
			JOINT Spine1
			{
				OFFSET 0.05594 2.14379 -0.03318
				CHANNELS 3 Zrotation Yrotation Xrotation
				JOINT Neck
				{
					OFFSET 0 0 0
					CHANNELS 3 Zrotation Yrotation Xrotation
					JOINT Neck1
					{
						OFFSET -0.09835 1.62725 0.24211
						CHANNELS 3 Zrotation Yrotation Xrotation
						JOINT Head
						{
							OFFSET 0.10849 1.66041 -0.22648
							CHANNELS 3 Zrotation Yrotation Xrotation
							End Site
							{
								OFFSET 0.04385 1.68267 -0.10541
							}
						}
					}
				}
				JOINT LeftShoulder
				{
					OFFSET 0 0 0
					CHANNELS 3 Zrotation Yrotation Xrotation
					JOINT LeftArm
					{
						OFFSET 3.29108 0.79398 -0.68179
						CHANNELS 3 Zrotation Yrotation Xrotation
						JOINT LeftForeArm
						{
							OFFSET 5.15310 -0.00000 -0.00000
							CHANNELS 3 Zrotation Yrotation Xrotation
							JOINT LeftHand
							{
								OFFSET 3.75138 -0.00000 -0.00000
								CHANNELS 3 Zrotation Yrotation Xrotation
								JOINT LeftFingerBase
								{
									OFFSET 0 0 0
									CHANNELS 3 Zrotation Yrotation Xrotation
									JOINT LeftHandIndex1
									{
										OFFSET 0.52917 -0.00000 0.00000
										CHANNELS 3 Zrotation Yrotation Xrotation
										End Site
										{
											OFFSET 0.42663 -0.00000 0.00000
										}
									}
								}
								JOINT LThumb
								{
									OFFSET 0 0 0
									CHANNELS 3 Zrotation Yrotation Xrotation
									End Site
									{
										OFFSET 0.43315 -0.00000 0.43315
									}
								}
							}
						}
					}
				}
				JOINT RightShoulder
				{
					OFFSET 0 0 0
					CHANNELS 3 Zrotation Yrotation Xrotation
					JOINT RightArm
					{
						OFFSET -3.07414 1.06285 -0.44338
						CHANNELS 3 Zrotation Yrotation Xrotation
						JOINT RightForeArm
						{
							OFFSET -5.29613 -0.00000 0.00000
							CHANNELS 3 Zrotation Yrotation Xrotation
							JOINT RightHand
							{
								OFFSET -3.76144 -0.00000 -0.00000
								CHANNELS 3 Zrotation Yrotation Xrotation
								JOINT RightFingerBase
								{
									OFFSET 0 0 0
									CHANNELS 3 Zrotation Yrotation Xrotation
									JOINT RightHandIndex1
									{
										OFFSET -0.74732 -0.00000 0.00000
										CHANNELS 3 Zrotation Yrotation Xrotation
										End Site
										{
											OFFSET -0.60251 -0.00000 0.00000
										}
									}
								}
								JOINT RThumb
								{
									OFFSET 0 0 0
									CHANNELS 3 Zrotation Yrotation Xrotation
									End Site
									{
										OFFSET -0.61171 -0.00000 0.61171
									}
								}
							}
						}
					}
				}
			}
		}
	}
}
MOTION
Frames: 13
Frame Time: .0083333
-2.2265 17.7667 5.2721 1.0561 30.9629 5.6163 0.0000 0.0000 0.0000 -27.6394 -1.7640 9.2858 7.0300 15.3571 48.9877 1.5134 5.2188 22.1451 0.2492 3.2125 8.8709 0.0000 0.0000 0.0000 11.7348 7.9982 -27.2769 -1.3747 -7.4198 20.9652 -0.0160 0.8329 2.8497 -1.9816 8.8276 -25.2574 -7.8278 -2.2786 10.4978 2.4570 -3.8395 -0.0148 7.5876 -1.6599 -5.2268 -6.4858 -2.7218 -21.1007 5.4158 -2.8061 14.3745 2.5123 -1.1356 8.0765 0.0000 -0.0000 0.0000 -84.4529 7.8247 48.3000 113.9733 -57.7129 -80.6021 -0.0000 0.0000 -27.2860 11.6416 9.0213 1.8503 -7.1250 0.0000 -0.0000 -13.1811 38.8611 2.0351 0.0000 -0.0000 0.0000 76.4507 -20.0113 44.9277 -124.3985 55.0192 -89.2917 0.0000 -0.0000 -24.9483 -1.9448 24.5786 -0.8092 7.1250 -0.0000 -0.0000 16.7460 -6.2324 15.5238
-2.0477 17.6933 5.6398 0.5900 30.7181 4.9459 0.0000 0.0000 0.0000 -26.6827 -1.1329 7.8509 8.0442 16.1516 52.7216 1.4825 3.6922 22.1144 0.1825 2.7515 7.5877 0.0000 0.0000 0.0000 12.8348 7.8108 -27.3930 -1.6637 -8.1273 23.1014 0.0002 2.4548 3.4914 -0.9202 6.1119 -17.1093 -7.1164 -2.0610 10.7582 2.5272 -3.4719 0.0961 7.2221 -1.4918 -5.3588 -6.2152 -2.6934 -20.5383 4.9450 -2.7808 14.0186 2.3110 -1.1637 7.8492 -0.0000 0.0000 0.0000 -84.5875 8.1682 48.3414 112.8981 -57.9231 -79.6921 -0.0000 0.0000 -27.3525 11.9830 9.3269 1.9701 -7.1250 0.0000 -0.0000 -12.9581 39.1903 1.8922 -0.0000 0.0000 0.0000 76.5984 -19.4688 45.0746 -124.7020 54.9209 -89.5403 0.0000 -0.0000 -25.6641 -2.4396 24.1692 -0.9993 7.1250 -0.0000 -0.0000 16.4599 -6.5905 15.1153
-1.8688 17.5997 6.0175 0.5944 30.6887 4.4636 0.0000 0.0000 0.0000 -26.0623 -0.6664 6.6275 9.1238 16.8867 56.5173 1.4253 3.0220 21.7873 0.1604 2.5804 7.1127 0.0000 0.0000 0.0000 13.5107 7.3213 -27.3280 -2.0067 -8.8801 25.4209 0.0505 4.2978 3.2893 -0.2302 3.0879 -8.5236 -6.7440 -1.8886 11.0606 2.4089 -3.2221 0.0684 6.8683 -1.3651 -5.6283 -5.9303 -2.7211 -19.7693 4.5437 -2.8667 13.8641 2.1210 -1.2385 7.6625 0.0000 0.0000 0.0000 -84.5320 8.6857 48.4285 111.7118 -58.1416 -78.6857 -0.0000 0.0000 -27.4212 11.7383 9.4990 1.9640 -7.1250 0.0000 -0.0000 -13.2034 39.3422 1.8791 0.0000 0.0000 0.0000 76.7229 -19.2481 45.3752 -125.1079 54.7876 -89.8722 0.0000 -0.0000 -26.5380 -2.5433 23.7633 -1.0254 7.1250 -0.0000 -0.0000 16.4066 -6.9725 14.9353
-1.6957 17.4983 6.3899 0.7948 30.9539 4.1725 0.0000 0.0000 0.0000 -25.5605 -0.5538 5.2703 10.3005 17.5754 60.4881 1.3540 3.0230 21.2146 0.1215 2.2471 6.1891 0.0000 0.0000 0.0000 13.8950 6.9021 -27.1113 -2.4083 -9.6693 27.9123 0.0674 4.6205 1.2388 -0.1328 2.3493 -6.4720 -6.6009 -1.8262 11.2108 2.2995 -3.1345 0.1296 6.6630 -1.3264 -5.6753 -6.1820 -2.8065 -19.9780 4.7066 -2.9509 14.6096 2.2093 -1.2754 7.9578 -0.0000 0.0000 0.0000 -84.6363 8.7484 48.3291 110.1402 -58.4104 -77.3488 -0.0000 0.0000 -27.3798 11.8554 9.8266 2.0518 -7.1250 0.0000 -0.0000 -13.1766 39.6764 1.7644 -0.0000 0.0000 0.0000 76.6358 -18.4673 45.7436 -125.2205 54.7502 -89.9642 0.0000 -0.0000 -27.3978 -2.7747 23.4126 -1.1032 7.1250 -0.0000 -0.0000 16.2754 -7.2930 14.6991
-1.5424 17.3899 6.7380 0.4317 31.1608 3.6548 0.0000 0.0000 0.0000 -24.4442 -0.4187 3.4655 11.5907 18.2122 64.6856 1.2497 2.8547 20.3825 0.0789 1.8116 4.9852 0.0000 0.0000 0.0000 14.7461 6.9728 -26.7019 -2.8442 -10.4384 30.4084 0.0074 3.2330 -1.8593 -0.1460 2.4625 -6.7857 -6.1203 -1.7428 11.6439 2.4536 -2.9718 0.2456 6.5513 -1.2523 -5.8362 -7.7427 -2.9905 -21.9663 6.0723 -2.9424 16.7802 2.9503 -1.2011 9.0854 -0.0000 0.0000 0.0000 -84.9869 8.7302 48.0293 109.1878 -58.5621 -76.5369 -0.0000 0.0000 -27.2696 12.3208 10.3621 2.2498 -7.1250 0.0000 -0.0000 -12.8998 40.2464 1.5411 -0.0000 0.0000 0.0000 76.5108 -17.5165 46.0642 -125.6603 54.6026 -90.3230 0.0000 -0.0000 -28.1199 -3.2160 23.0162 -1.2585 7.1250 -0.0000 -0.0000 16.0173 -7.6431 14.3313
-1.4123 17.2630 7.0621 -0.9514 30.7288 2.6117 0.0000 0.0000 0.0000 -22.1588 0.3659 1.1226 12.9248 18.7548 68.8918 1.1454 2.2839 19.5999 0.0577 1.5494 4.2620 0.0000 0.0000 0.0000 16.6376 7.9445 -26.1141 -3.3345 -11.2178 33.0181 -0.0790 2.4952 -5.0274 -0.2905 3.4662 -9.5796 -4.8449 -1.5005 12.6156 2.7781 -2.4939 0.1770 6.1520 -1.0161 -6.5672 -7.4755 -2.8245 -21.5866 5.6733 -2.7353 16.6113 2.7946 -1.1361 8.9351 0.0000 -0.0000 0.0000 -85.2822 9.5847 47.4698 109.3078 -58.5435 -76.6392 -0.0000 0.0000 -26.9456 12.5621 10.6092 2.3493 -7.1250 0.0000 -0.0000 -12.7492 40.5128 1.4372 0.0000 -0.0000 0.0000 76.5051 -16.7943 46.4374 -126.3640 54.3607 -90.8957 0.0000 -0.0000 -28.6524 -3.0693 22.9321 -1.1969 7.1250 -0.0000 -0.0000 16.1083 -7.7341 14.3899
-1.3007 17.1606 7.4221 -2.8960 30.4788 1.6200 0.0000 0.0000 0.0000 -18.8720 0.9970 -1.4484 14.2440 19.1864 72.9484 0.9988 0.8420 18.6283 0.0292 1.1035 3.0336 0.0000 0.0000 0.0000 19.1398 9.6215 -25.1176 -3.7355 -11.7998 35.0275 -0.1905 2.1164 -7.7818 -0.2173 3.0006 -8.2806 -3.5326 -1.3243 13.1129 3.3200 -2.0368 -0.0017 5.9374 -0.8007 -7.1271 -6.9459 -2.5560 -21.2088 5.1026 -2.4364 16.6041 2.5517 -1.0296 8.8306 0.0000 -0.0000 0.0000 -85.6226 10.5398 46.8505 109.4639 -58.5190 -76.7724 -0.0000 0.0000 -26.5341 12.3808 10.7178 2.3377 -7.1250 0.0000 -0.0000 -12.9302 40.6053 1.4283 0.0000 -0.0000 0.0000 76.4891 -15.8114 46.8011 -126.6636 54.2556 -91.1391 0.0000 -0.0000 -28.8825 -3.2370 22.9885 -1.2653 7.1250 -0.0000 -0.0000 16.0051 -7.6682 14.3112
-1.1074 17.0735 7.8281 -0.6220 32.0260 1.8881 0.0000 0.0000 0.0000 -20.5724 0.0394 -1.7199 15.2136 19.4416 75.8794 0.8737 0.7902 17.4166 0.0117 0.6975 1.9169 0.0000 0.0000 0.0000 17.4671 8.0646 -23.5136 -4.0627 -12.2433 36.5982 -0.3373 -0.2803 -11.0750 -0.2896 3.4606 -9.5637 -4.9936 -1.5514 13.6109 2.7897 -2.6209 0.2008 6.3263 -1.0509 -7.0765 -6.9665 -2.4756 -21.3041 5.0037 -2.2983 16.8681 2.5429 -0.9776 8.9279 -0.0000 0.0000 0.0000 -85.9620 11.3617 46.4105 109.5702 -58.5022 -76.8631 -0.0000 0.0000 -26.1892 12.4333 10.9198 2.3916 -7.1250 0.0000 -0.0000 -12.9320 40.8106 1.3618 -0.0000 0.0000 0.0000 76.4330 -14.6335 47.0639 -126.8669 54.1835 -91.3040 0.0000 -0.0000 -29.0039 -4.1512 22.6805 -1.6031 7.1250 -0.0000 -0.0000 15.4544 -7.8993 13.7054
-0.9495 17.0138 8.1745 -2.1644 32.4191 1.1823 0.0000 0.0000 0.0000 -17.8996 0.1668 -4.2313 16.3134 19.6710 79.1640 0.7666 -0.2494 16.6393 0.0163 0.8234 2.2630 0.0000 0.0000 0.0000 19.3348 9.0960 -22.1867 -4.2765 -12.5195 37.5953 -0.4010 -2.7306 -13.2771 -0.3973 4.0470 -11.2089 -3.3355 -1.5735 13.9689 3.1369 -2.3668 -0.0309 5.7336 -0.9535 -7.6143 -7.3916 -2.5386 -21.4567 5.3827 -2.3360 17.3423 2.7454 -0.9820 9.1314 0.0000 -0.0000 0.0000 -86.1210 12.4168 46.1708 110.0782 -58.4206 -77.2961 -0.0000 0.0000 -26.2925 12.6205 11.4876 2.5532 -7.1250 0.0000 -0.0000 -12.9052 41.3922 1.1702 0.0000 -0.0000 0.0000 76.5754 -13.7609 47.2751 -127.2743 54.0374 -91.6341 0.0000 -0.0000 -29.0294 -4.7661 22.4207 -1.8214 7.1250 -0.0000 -0.0000 15.0820 -8.1041 13.2865
-0.7885 16.9974 8.5214 -4.0859 32.6856 0.4776 0.0000 0.0000 0.0000 -14.7047 0.5772 -7.1540 17.2941 19.8235 82.0661 0.6963 -1.3652 16.3139 0.0453 1.3737 3.7777 0.0000 0.0000 0.0000 21.5740 10.0858 -20.8824 -4.4536 -12.7407 38.4054 -0.4803 -3.9796 -15.1564 -0.3328 3.7076 -10.2553 -1.5498 -1.5800 14.0163 3.6247 -2.0364 -0.2521 5.1864 -0.8363 -7.9637 -7.4910 -2.6197 -21.3868 5.3211 -2.4131 17.5510 2.7320 -1.0339 9.1978 -0.0000 -0.0000 0.0000 -86.4627 13.2446 45.7350 110.0728 -58.4215 -77.2914 -0.0000 0.0000 -26.5093 12.5325 11.1038 2.4514 -7.1250 0.0000 -0.0000 -12.8897 41.0025 1.2950 -0.0000 -0.0000 0.0000 76.7400 -12.7748 47.3853 -127.4957 53.9569 -91.8132 0.0000 -0.0000 -29.1258 -4.8079 22.6058 -1.8518 7.1250 -0.0000 -0.0000 15.0536 -7.9222 13.3155
-0.6290 16.9389 8.8383 -5.3986 32.9395 -0.3760 0.0000 0.0000 0.0000 -12.5372 0.7878 -9.6803 18.2870 19.9295 84.9858 0.6029 -2.3947 15.7305 0.0365 1.2325 3.3888 0.0000 0.0000 0.0000 23.1366 10.3051 -19.5621 -4.5842 -12.8997 38.9942 -0.5920 -4.3440 -16.7662 -0.1544 2.5316 -6.9772 -0.3391 -1.5062 14.4354 4.0344 -1.6899 -0.2097 4.8867 -0.6998 -8.2128 -7.4055 -2.7182 -21.2816 4.9315 -2.4893 17.2650 2.5674 -1.1071 9.0793 0.0000 0.0000 0.0000 -87.0853 13.7852 45.1572 109.6801 -58.4848 -76.9567 -0.0000 0.0000 -26.5113 10.7902 9.0725 1.7213 -7.1250 0.0000 -0.0000 -13.9105 38.8483 2.1574 0.0000 0.0000 0.0000 76.6986 -11.4385 47.3501 -127.7881 53.8495 -92.0495 0.0000 -0.0000 -29.6837 -4.6987 22.6374 -1.8120 7.1250 -0.0000 -0.0000 15.1200 -7.9000 13.3856
-0.4744 16.8697 9.1449 -6.1326 33.1478 -0.7904 0.0000 0.0000 0.0000 -11.1897 0.8260 -12.4897 19.1804 19.9839 87.6031 0.4789 -3.8179 15.0306 0.0139 0.7625 2.0956 0.0000 0.0000 0.0000 24.0531 10.2028 -18.6119 -4.6973 -13.0346 39.4982 -0.6705 -4.8333 -17.9741 -0.2413 3.1611 -8.7276 0.2588 -1.3163 14.6083 4.4094 -1.2970 -0.0757 4.8724 -0.5240 -8.2048 -7.6679 -2.9123 -21.3896 4.8613 -2.6393 16.8429 2.5597 -1.1984 8.9655 -0.0000 0.0000 0.0000 -87.8647 14.3595 44.5729 109.8227 -58.4619 -77.0783 -0.0000 0.0000 -26.6183 9.7992 7.7340 1.3315 -7.1250 0.0000 -0.0000 -14.4471 37.4622 2.7498 -0.0000 0.0000 0.0000 76.5472 -10.0658 47.1956 -128.2973 53.6596 -92.4601 0.0000 -0.0000 -30.1530 -5.4084 22.3963 -2.0659 7.1250 -0.0000 -0.0000 14.6874 -8.0783 12.9211
-0.3055 16.8350 9.4372 -6.1013 33.4696 -0.5262 0.0000 0.0000 0.0000 -10.8749 0.6795 -15.7599 19.9579 20.0000 89.8770 0.3381 -5.1787 14.1154 0.0002 0.0862 0.2368 0.0000 0.0000 0.0000 24.2140 9.7430 -18.0904 -4.8346 -13.1951 40.1032 -0.7404 -5.2988 -19.0288 -0.4756 4.4226 -12.2687 0.5188 -1.1888 14.5049 4.4457 -1.0851 0.0319 4.7092 -0.4337 -8.0513 -7.8111 -3.0614 -21.8553 4.9793 -2.7845 16.7436 2.6012 -1.2562 9.0261 -0.0000 -0.0000 0.0000 -88.4493 14.9564 43.9362 110.4568 -58.3582 -77.6184 -0.0000 0.0000 -26.9993 11.1053 9.4597 1.8478 -7.1250 0.0000 -0.0000 -13.7311 39.2542 1.9879 -0.0000 -0.0000 0.0000 76.6325 -8.6610 47.0669 -128.9640 53.4049 -92.9962 0.0000 -0.0000 -30.4523 -5.4327 22.0763 -2.0471 7.1250 -0.0000 -0.0000 14.6766 -8.3863 12.8184
